<svg width="400" height="40" viewBox="0 0 400 40" fill="none" xmlns="http://www.w3.org/2000/svg">
<path d="M0 4C0 1.79086 1.79086 0 4 0H133.333V40H4C1.79086 40 0 38.2091 0 36V4Z" fill="#074EE8"/>
<path d="M39.124 24.864H43.124V26H37.668V14.72H39.124V24.864ZM52.6855 21.12C52.6855 21.4293 52.6642 21.696 52.6215 21.92H45.5975C45.6295 22.9227 45.9122 23.6747 46.4455 24.176C46.9895 24.6773 47.6508 24.928 48.4295 24.928C49.1335 24.928 49.7202 24.752 50.1895 24.4C50.6695 24.0373 50.9628 23.5573 51.0695 22.96H52.6215C52.5148 23.568 52.2748 24.112 51.9015 24.592C51.5388 25.072 51.0642 25.4453 50.4775 25.712C49.8908 25.9787 49.2295 26.112 48.4935 26.112C47.6508 26.112 46.9042 25.9307 46.2535 25.568C45.6028 25.2053 45.0908 24.688 44.7175 24.016C44.3548 23.3333 44.1735 22.5333 44.1735 21.616C44.1735 20.6987 44.3548 19.8987 44.7175 19.216C45.0908 18.5333 45.6028 18.0107 46.2535 17.648C46.9042 17.2853 47.6508 17.104 48.4935 17.104C49.3468 17.104 50.0882 17.2853 50.7175 17.648C51.3575 18.0107 51.8428 18.496 52.1735 19.104C52.5148 19.712 52.6855 20.384 52.6855 21.12ZM51.2135 21.216C51.2455 20.5653 51.1388 20.0213 50.8935 19.584C50.6482 19.1467 50.3122 18.8213 49.8855 18.608C49.4588 18.3947 48.9948 18.288 48.4935 18.288C47.6935 18.288 47.0215 18.5387 46.4775 19.04C45.9335 19.5307 45.6402 20.256 45.5975 21.216H51.2135ZM58.1899 17.104C59.0432 17.104 59.7632 17.3173 60.3499 17.744C60.9472 18.1707 61.3632 18.7413 61.5979 19.456V17.216H63.0539V26H61.5979V23.76C61.3632 24.4747 60.9472 25.0453 60.3499 25.472C59.7632 25.8987 59.0432 26.112 58.1899 26.112C57.4112 26.112 56.7179 25.9307 56.1099 25.568C55.5019 25.2053 55.0219 24.688 54.6699 24.016C54.3285 23.3333 54.1579 22.5333 54.1579 21.616C54.1579 20.6987 54.3285 19.8987 54.6699 19.216C55.0219 18.5333 55.5019 18.0107 56.1099 17.648C56.7179 17.2853 57.4112 17.104 58.1899 17.104ZM58.6059 18.4C57.7099 18.4 56.9899 18.688 56.4459 19.264C55.9125 19.8293 55.6459 20.6133 55.6459 21.616C55.6459 22.6187 55.9125 23.408 56.4459 23.984C56.9899 24.5493 57.7099 24.832 58.6059 24.832C59.1819 24.832 59.6939 24.6987 60.1419 24.432C60.6005 24.1653 60.9579 23.792 61.2139 23.312C61.4699 22.8213 61.5979 22.256 61.5979 21.616C61.5979 20.976 61.4699 20.4107 61.2139 19.92C60.9579 19.4293 60.6005 19.056 60.1419 18.8C59.6939 18.5333 59.1819 18.4 58.6059 18.4ZM66.8271 18.992C67.1151 18.384 67.5365 17.9147 68.0911 17.584C68.6458 17.2427 69.3071 17.072 70.0751 17.072V18.656H69.6271C68.8058 18.656 68.1338 18.8693 67.6111 19.296C67.0885 19.712 66.8271 20.4053 66.8271 21.376V26H65.3711V17.216H66.8271V18.992ZM76.1358 17.072C77.1598 17.072 77.9864 17.4027 78.6158 18.064C79.2451 18.7147 79.5598 19.6587 79.5598 20.896V26H78.1038V21.024C78.1038 20.1493 77.8798 19.4773 77.4318 19.008C76.9838 18.5387 76.3758 18.304 75.6078 18.304C74.8078 18.304 74.1678 18.5653 73.6878 19.088C73.2078 19.6 72.9678 20.352 72.9678 21.344V26H71.5118V17.216H72.9678V19.296C73.1918 18.5813 73.5864 18.032 74.1518 17.648C74.7278 17.264 75.3891 17.072 76.1358 17.072ZM89.873 21.12C89.873 21.4293 89.8517 21.696 89.809 21.92H82.785C82.817 22.9227 83.0997 23.6747 83.633 24.176C84.177 24.6773 84.8383 24.928 85.617 24.928C86.321 24.928 86.9077 24.752 87.377 24.4C87.857 24.0373 88.1503 23.5573 88.257 22.96H89.809C89.7023 23.568 89.4623 24.112 89.089 24.592C88.7263 25.072 88.2517 25.4453 87.665 25.712C87.0783 25.9787 86.417 26.112 85.681 26.112C84.8383 26.112 84.0917 25.9307 83.441 25.568C82.7903 25.2053 82.2783 24.688 81.905 24.016C81.5423 23.3333 81.361 22.5333 81.361 21.616C81.361 20.6987 81.5423 19.8987 81.905 19.216C82.2783 18.5333 82.7903 18.0107 83.441 17.648C84.0917 17.2853 84.8383 17.104 85.681 17.104C86.5343 17.104 87.2757 17.2853 87.905 17.648C88.545 18.0107 89.0303 18.496 89.361 19.104C89.7023 19.712 89.873 20.384 89.873 21.12ZM88.401 21.216C88.433 20.5653 88.3263 20.0213 88.081 19.584C87.8357 19.1467 87.4997 18.8213 87.073 18.608C86.6463 18.3947 86.1823 18.288 85.681 18.288C84.881 18.288 84.209 18.5387 83.665 19.04C83.121 19.5307 82.8277 20.256 82.785 21.216H88.401ZM93.2334 18.992C93.5214 18.384 93.9427 17.9147 94.4974 17.584C95.052 17.2427 95.7134 17.072 96.4814 17.072V18.656H96.0334C95.212 18.656 94.54 18.8693 94.0174 19.296C93.4947 19.712 93.2334 20.4053 93.2334 21.376V26H91.7774V17.216H93.2334V18.992Z" fill="white"/>
<g filter="url(#filter0_ii)">
<path d="M133.333 0H266.667V40H133.333V0Z" fill="white"/>
<path d="M174.913 14.72V15.904H171.729V26H170.273V15.904H167.089V14.72H174.913ZM184.441 21.12C184.441 21.4293 184.419 21.696 184.377 21.92H177.353C177.385 22.9227 177.667 23.6747 178.201 24.176C178.745 24.6773 179.406 24.928 180.185 24.928C180.889 24.928 181.475 24.752 181.945 24.4C182.425 24.0373 182.718 23.5573 182.825 22.96H184.377C184.27 23.568 184.03 24.112 183.657 24.592C183.294 25.072 182.819 25.4453 182.233 25.712C181.646 25.9787 180.985 26.112 180.249 26.112C179.406 26.112 178.659 25.9307 178.009 25.568C177.358 25.2053 176.846 24.688 176.473 24.016C176.11 23.3333 175.929 22.5333 175.929 21.616C175.929 20.6987 176.11 19.8987 176.473 19.216C176.846 18.5333 177.358 18.0107 178.009 17.648C178.659 17.2853 179.406 17.104 180.249 17.104C181.102 17.104 181.843 17.2853 182.473 17.648C183.113 18.0107 183.598 18.496 183.929 19.104C184.27 19.712 184.441 20.384 184.441 21.12ZM182.969 21.216C183.001 20.5653 182.894 20.0213 182.649 19.584C182.403 19.1467 182.067 18.8213 181.641 18.608C181.214 18.3947 180.75 18.288 180.249 18.288C179.449 18.288 178.777 18.5387 178.233 19.04C177.689 19.5307 177.395 20.256 177.353 21.216H182.969ZM189.945 17.104C190.798 17.104 191.518 17.3173 192.105 17.744C192.702 18.1707 193.118 18.7413 193.353 19.456V17.216H194.809V26H193.353V23.76C193.118 24.4747 192.702 25.0453 192.105 25.472C191.518 25.8987 190.798 26.112 189.945 26.112C189.166 26.112 188.473 25.9307 187.865 25.568C187.257 25.2053 186.777 24.688 186.425 24.016C186.084 23.3333 185.913 22.5333 185.913 21.616C185.913 20.6987 186.084 19.8987 186.425 19.216C186.777 18.5333 187.257 18.0107 187.865 17.648C188.473 17.2853 189.166 17.104 189.945 17.104ZM190.361 18.4C189.465 18.4 188.745 18.688 188.201 19.264C187.668 19.8293 187.401 20.6133 187.401 21.616C187.401 22.6187 187.668 23.408 188.201 23.984C188.745 24.5493 189.465 24.832 190.361 24.832C190.937 24.832 191.449 24.6987 191.897 24.432C192.356 24.1653 192.713 23.792 192.969 23.312C193.225 22.8213 193.353 22.256 193.353 21.616C193.353 20.976 193.225 20.4107 192.969 19.92C192.713 19.4293 192.356 19.056 191.897 18.8C191.449 18.5333 190.937 18.4 190.361 18.4ZM201.014 17.104C202.134 17.104 203.062 17.4027 203.798 18C204.534 18.5973 204.988 19.3973 205.158 20.4H203.622C203.516 19.7707 203.222 19.28 202.742 18.928C202.273 18.5653 201.686 18.384 200.982 18.384C200.47 18.384 200.001 18.5013 199.574 18.736C199.158 18.9707 198.822 19.3333 198.566 19.824C198.31 20.304 198.182 20.9013 198.182 21.616C198.182 22.3307 198.31 22.9333 198.566 23.424C198.822 23.904 199.158 24.2613 199.574 24.496C200.001 24.7307 200.47 24.848 200.982 24.848C201.686 24.848 202.273 24.6667 202.742 24.304C203.222 23.9413 203.516 23.4453 203.622 22.816H205.158C204.988 23.8293 204.534 24.6347 203.798 25.232C203.062 25.8187 202.134 26.112 201.014 26.112C200.172 26.112 199.425 25.9307 198.774 25.568C198.124 25.2053 197.612 24.688 197.238 24.016C196.876 23.3333 196.694 22.5333 196.694 21.616C196.694 20.6987 196.876 19.8987 197.238 19.216C197.612 18.5333 198.124 18.0107 198.774 17.648C199.425 17.2853 200.172 17.104 201.014 17.104ZM211.688 17.072C212.712 17.072 213.538 17.4027 214.168 18.064C214.797 18.7147 215.112 19.6587 215.112 20.896V26H213.656V21.024C213.656 20.1493 213.432 19.4773 212.984 19.008C212.536 18.5387 211.928 18.304 211.16 18.304C210.36 18.304 209.72 18.5653 209.24 19.088C208.76 19.6 208.52 20.352 208.52 21.344V26H207.064V14.16H208.52V19.296C208.744 18.5813 209.138 18.032 209.704 17.648C210.28 17.264 210.941 17.072 211.688 17.072ZM225.425 21.12C225.425 21.4293 225.404 21.696 225.361 21.92H218.337C218.369 22.9227 218.652 23.6747 219.185 24.176C219.729 24.6773 220.39 24.928 221.169 24.928C221.873 24.928 222.46 24.752 222.929 24.4C223.409 24.0373 223.702 23.5573 223.809 22.96H225.361C225.254 23.568 225.014 24.112 224.641 24.592C224.278 25.072 223.804 25.4453 223.217 25.712C222.63 25.9787 221.969 26.112 221.233 26.112C220.39 26.112 219.644 25.9307 218.993 25.568C218.342 25.2053 217.83 24.688 217.457 24.016C217.094 23.3333 216.913 22.5333 216.913 21.616C216.913 20.6987 217.094 19.8987 217.457 19.216C217.83 18.5333 218.342 18.0107 218.993 17.648C219.644 17.2853 220.39 17.104 221.233 17.104C222.086 17.104 222.828 17.2853 223.457 17.648C224.097 18.0107 224.582 18.496 224.913 19.104C225.254 19.712 225.425 20.384 225.425 21.12ZM223.953 21.216C223.985 20.5653 223.878 20.0213 223.633 19.584C223.388 19.1467 223.052 18.8213 222.625 18.608C222.198 18.3947 221.734 18.288 221.233 18.288C220.433 18.288 219.761 18.5387 219.217 19.04C218.673 19.5307 218.38 20.256 218.337 21.216H223.953ZM228.785 18.992C229.073 18.384 229.495 17.9147 230.049 17.584C230.604 17.2427 231.265 17.072 232.033 17.072V18.656H231.585C230.764 18.656 230.092 18.8693 229.569 19.296C229.047 19.712 228.785 20.4053 228.785 21.376V26H227.329V17.216H228.785V18.992Z" fill="#074EE8"/>
</g>
<path d="M266.667 0H396C398.209 0 400 1.79086 400 4V36C400 38.2091 398.209 40 396 40H266.667V0Z" fill="white"/>
<path d="M309.291 21.456V26H307.835V14.72H311.419C312.709 14.72 313.675 15.024 314.315 15.632C314.955 16.2293 315.275 17.0507 315.275 18.096C315.275 19.152 314.944 19.9787 314.283 20.576C313.621 21.1627 312.667 21.456 311.419 21.456H309.291ZM311.291 20.24C312.176 20.24 312.811 20.0533 313.195 19.68C313.589 19.3067 313.787 18.7787 313.787 18.096C313.787 17.392 313.589 16.8587 313.195 16.496C312.811 16.1227 312.176 15.936 311.291 15.936H309.291V20.24H311.291ZM320.575 17.104C321.429 17.104 322.149 17.3173 322.735 17.744C323.333 18.1707 323.749 18.7413 323.983 19.456V17.216H325.439V26H323.983V23.76C323.749 24.4747 323.333 25.0453 322.735 25.472C322.149 25.8987 321.429 26.112 320.575 26.112C319.797 26.112 319.103 25.9307 318.495 25.568C317.887 25.2053 317.407 24.688 317.055 24.016C316.714 23.3333 316.543 22.5333 316.543 21.616C316.543 20.6987 316.714 19.8987 317.055 19.216C317.407 18.5333 317.887 18.0107 318.495 17.648C319.103 17.2853 319.797 17.104 320.575 17.104ZM320.991 18.4C320.095 18.4 319.375 18.688 318.831 19.264C318.298 19.8293 318.031 20.6133 318.031 21.616C318.031 22.6187 318.298 23.408 318.831 23.984C319.375 24.5493 320.095 24.832 320.991 24.832C321.567 24.832 322.079 24.6987 322.527 24.432C322.986 24.1653 323.343 23.792 323.599 23.312C323.855 22.8213 323.983 22.256 323.983 21.616C323.983 20.976 323.855 20.4107 323.599 19.92C323.343 19.4293 322.986 19.056 322.527 18.8C322.079 18.5333 321.567 18.4 320.991 18.4ZM329.213 18.992C329.501 18.384 329.922 17.9147 330.477 17.584C331.031 17.2427 331.693 17.072 332.461 17.072V18.656H332.013C331.191 18.656 330.519 18.8693 329.997 19.296C329.474 19.712 329.213 20.4053 329.213 21.376V26H327.757V17.216H329.213V18.992ZM341.977 21.12C341.977 21.4293 341.956 21.696 341.913 21.92H334.889C334.921 22.9227 335.204 23.6747 335.737 24.176C336.281 24.6773 336.943 24.928 337.721 24.928C338.425 24.928 339.012 24.752 339.481 24.4C339.961 24.0373 340.255 23.5573 340.361 22.96H341.913C341.807 23.568 341.567 24.112 341.193 24.592C340.831 25.072 340.356 25.4453 339.769 25.712C339.183 25.9787 338.521 26.112 337.785 26.112C336.943 26.112 336.196 25.9307 335.545 25.568C334.895 25.2053 334.383 24.688 334.009 24.016C333.647 23.3333 333.465 22.5333 333.465 21.616C333.465 20.6987 333.647 19.8987 334.009 19.216C334.383 18.5333 334.895 18.0107 335.545 17.648C336.196 17.2853 336.943 17.104 337.785 17.104C338.639 17.104 339.38 17.2853 340.009 17.648C340.649 18.0107 341.135 18.496 341.465 19.104C341.807 19.712 341.977 20.384 341.977 21.12ZM340.505 21.216C340.537 20.5653 340.431 20.0213 340.185 19.584C339.94 19.1467 339.604 18.8213 339.177 18.608C338.751 18.3947 338.287 18.288 337.785 18.288C336.985 18.288 336.313 18.5387 335.769 19.04C335.225 19.5307 334.932 20.256 334.889 21.216H340.505ZM348.506 17.072C349.53 17.072 350.356 17.4027 350.986 18.064C351.615 18.7147 351.93 19.6587 351.93 20.896V26H350.474V21.024C350.474 20.1493 350.25 19.4773 349.802 19.008C349.354 18.5387 348.746 18.304 347.978 18.304C347.178 18.304 346.538 18.5653 346.058 19.088C345.578 19.6 345.338 20.352 345.338 21.344V26H343.882V17.216H345.338V19.296C345.562 18.5813 345.956 18.032 346.522 17.648C347.098 17.264 347.759 17.072 348.506 17.072ZM358.355 24.72V26H357.267C356.371 26 355.699 25.7867 355.251 25.36C354.814 24.9333 354.595 24.2187 354.595 23.216V18.48H353.283V17.216H354.595V15.024H356.067V17.216H358.339V18.48H356.067V23.248C356.067 23.8133 356.168 24.2027 356.371 24.416C356.584 24.6187 356.947 24.72 357.459 24.72H358.355Z" fill="#074EE8"/>
<path d="M266.667 0V-2H264.667V0H266.667ZM266.667 40H264.667V42H266.667V40ZM266.667 2H396V-2H266.667V2ZM398 4V36H402V4H398ZM396 38H266.667V42H396V38ZM268.667 40V0H264.667V40H268.667ZM398 36C398 37.1046 397.105 38 396 38V42C399.314 42 402 39.3137 402 36H398ZM396 2C397.105 2 398 2.89543 398 4H402C402 0.686295 399.314 -2 396 -2V2Z" fill="#074EE8"/>
<defs>
<filter id="filter0_ii" x="133.333" y="0" width="133.333" height="40" filterUnits="userSpaceOnUse" color-interpolation-filters="sRGB">
<feFlood flood-opacity="0" result="BackgroundImageFix"/>
<feBlend mode="normal" in="SourceGraphic" in2="BackgroundImageFix" result="shape"/>
<feColorMatrix in="SourceAlpha" type="matrix" values="0 0 0 0 0 0 0 0 0 0 0 0 0 0 0 0 0 0 127 0" result="hardAlpha"/>
<feOffset dy="2"/>
<feComposite in2="hardAlpha" operator="arithmetic" k2="-1" k3="1"/>
<feColorMatrix type="matrix" values="0 0 0 0 0 0 0 0 0 0.4 0 0 0 0 1 0 0 0 1 0"/>
<feBlend mode="normal" in2="shape" result="effect1_innerShadow"/>
<feColorMatrix in="SourceAlpha" type="matrix" values="0 0 0 0 0 0 0 0 0 0 0 0 0 0 0 0 0 0 127 0" result="hardAlpha"/>
<feOffset dy="-2"/>
<feComposite in2="hardAlpha" operator="arithmetic" k2="-1" k3="1"/>
<feColorMatrix type="matrix" values="0 0 0 0 0 0 0 0 0 0.4 0 0 0 0 1 0 0 0 1 0"/>
<feBlend mode="normal" in2="effect1_innerShadow" result="effect2_innerShadow"/>
</filter>
</defs>
</svg>
