<svg width="134" height="40" viewBox="0 0 134 40" fill="none" xmlns="http://www.w3.org/2000/svg">
<path d="M0 4C0 1.79086 1.79086 0 4 0H133.333V40H4C1.79086 40 0 38.2091 0 36V4Z" fill="#074EE8"/>
<path d="M39.124 24.864H43.124V26H37.668V14.72H39.124V24.864ZM52.6855 21.12C52.6855 21.4293 52.6642 21.696 52.6215 21.92H45.5975C45.6295 22.9227 45.9122 23.6747 46.4455 24.176C46.9895 24.6773 47.6508 24.928 48.4295 24.928C49.1335 24.928 49.7202 24.752 50.1895 24.4C50.6695 24.0373 50.9628 23.5573 51.0695 22.96H52.6215C52.5148 23.568 52.2748 24.112 51.9015 24.592C51.5388 25.072 51.0642 25.4453 50.4775 25.712C49.8908 25.9787 49.2295 26.112 48.4935 26.112C47.6508 26.112 46.9042 25.9307 46.2535 25.568C45.6028 25.2053 45.0908 24.688 44.7175 24.016C44.3548 23.3333 44.1735 22.5333 44.1735 21.616C44.1735 20.6987 44.3548 19.8987 44.7175 19.216C45.0908 18.5333 45.6028 18.0107 46.2535 17.648C46.9042 17.2853 47.6508 17.104 48.4935 17.104C49.3468 17.104 50.0882 17.2853 50.7175 17.648C51.3575 18.0107 51.8428 18.496 52.1735 19.104C52.5148 19.712 52.6855 20.384 52.6855 21.12ZM51.2135 21.216C51.2455 20.5653 51.1388 20.0213 50.8935 19.584C50.6482 19.1467 50.3122 18.8213 49.8855 18.608C49.4588 18.3947 48.9948 18.288 48.4935 18.288C47.6935 18.288 47.0215 18.5387 46.4775 19.04C45.9335 19.5307 45.6402 20.256 45.5975 21.216H51.2135ZM58.1899 17.104C59.0432 17.104 59.7632 17.3173 60.3499 17.744C60.9472 18.1707 61.3632 18.7413 61.5979 19.456V17.216H63.0539V26H61.5979V23.76C61.3632 24.4747 60.9472 25.0453 60.3499 25.472C59.7632 25.8987 59.0432 26.112 58.1899 26.112C57.4112 26.112 56.7179 25.9307 56.1099 25.568C55.5019 25.2053 55.0219 24.688 54.6699 24.016C54.3285 23.3333 54.1579 22.5333 54.1579 21.616C54.1579 20.6987 54.3285 19.8987 54.6699 19.216C55.0219 18.5333 55.5019 18.0107 56.1099 17.648C56.7179 17.2853 57.4112 17.104 58.1899 17.104ZM58.6059 18.4C57.7099 18.4 56.9899 18.688 56.4459 19.264C55.9125 19.8293 55.6459 20.6133 55.6459 21.616C55.6459 22.6187 55.9125 23.408 56.4459 23.984C56.9899 24.5493 57.7099 24.832 58.6059 24.832C59.1819 24.832 59.6939 24.6987 60.1419 24.432C60.6005 24.1653 60.9579 23.792 61.2139 23.312C61.4699 22.8213 61.5979 22.256 61.5979 21.616C61.5979 20.976 61.4699 20.4107 61.2139 19.92C60.9579 19.4293 60.6005 19.056 60.1419 18.8C59.6939 18.5333 59.1819 18.4 58.6059 18.4ZM66.8271 18.992C67.1151 18.384 67.5365 17.9147 68.0911 17.584C68.6458 17.2427 69.3071 17.072 70.0751 17.072V18.656H69.6271C68.8058 18.656 68.1338 18.8693 67.6111 19.296C67.0885 19.712 66.8271 20.4053 66.8271 21.376V26H65.3711V17.216H66.8271V18.992ZM76.1358 17.072C77.1598 17.072 77.9864 17.4027 78.6158 18.064C79.2451 18.7147 79.5598 19.6587 79.5598 20.896V26H78.1038V21.024C78.1038 20.1493 77.8798 19.4773 77.4318 19.008C76.9838 18.5387 76.3758 18.304 75.6078 18.304C74.8078 18.304 74.1678 18.5653 73.6878 19.088C73.2078 19.6 72.9678 20.352 72.9678 21.344V26H71.5118V17.216H72.9678V19.296C73.1918 18.5813 73.5864 18.032 74.1518 17.648C74.7278 17.264 75.3891 17.072 76.1358 17.072ZM89.873 21.12C89.873 21.4293 89.8517 21.696 89.809 21.92H82.785C82.817 22.9227 83.0997 23.6747 83.633 24.176C84.177 24.6773 84.8383 24.928 85.617 24.928C86.321 24.928 86.9077 24.752 87.377 24.4C87.857 24.0373 88.1503 23.5573 88.257 22.96H89.809C89.7023 23.568 89.4623 24.112 89.089 24.592C88.7263 25.072 88.2517 25.4453 87.665 25.712C87.0783 25.9787 86.417 26.112 85.681 26.112C84.8383 26.112 84.0917 25.9307 83.441 25.568C82.7903 25.2053 82.2783 24.688 81.905 24.016C81.5423 23.3333 81.361 22.5333 81.361 21.616C81.361 20.6987 81.5423 19.8987 81.905 19.216C82.2783 18.5333 82.7903 18.0107 83.441 17.648C84.0917 17.2853 84.8383 17.104 85.681 17.104C86.5343 17.104 87.2757 17.2853 87.905 17.648C88.545 18.0107 89.0303 18.496 89.361 19.104C89.7023 19.712 89.873 20.384 89.873 21.12ZM88.401 21.216C88.433 20.5653 88.3263 20.0213 88.081 19.584C87.8357 19.1467 87.4997 18.8213 87.073 18.608C86.6463 18.3947 86.1823 18.288 85.681 18.288C84.881 18.288 84.209 18.5387 83.665 19.04C83.121 19.5307 82.8277 20.256 82.785 21.216H88.401ZM93.2334 18.992C93.5214 18.384 93.9427 17.9147 94.4974 17.584C95.052 17.2427 95.7134 17.072 96.4814 17.072V18.656H96.0334C95.212 18.656 94.54 18.8693 94.0174 19.296C93.4947 19.712 93.2334 20.4053 93.2334 21.376V26H91.7774V17.216H93.2334V18.992Z" fill="white"/>
</svg>
