<svg width="134" height="40" viewBox="0 0 134 40" fill="none" xmlns="http://www.w3.org/2000/svg">
<g filter="url(#filter0_ii)">
<path d="M0.333252 0H133.667V40H0.333252V0Z" fill="white"/>
<path d="M41.9133 14.72V15.904H38.7293V26H37.2733V15.904H34.0893V14.72H41.9133ZM51.4406 21.12C51.4406 21.4293 51.4193 21.696 51.3766 21.92H44.3526C44.3846 22.9227 44.6673 23.6747 45.2006 24.176C45.7446 24.6773 46.406 24.928 47.1846 24.928C47.8886 24.928 48.4753 24.752 48.9446 24.4C49.4246 24.0373 49.718 23.5573 49.8246 22.96H51.3766C51.27 23.568 51.03 24.112 50.6566 24.592C50.294 25.072 49.8193 25.4453 49.2326 25.712C48.646 25.9787 47.9846 26.112 47.2486 26.112C46.406 26.112 45.6593 25.9307 45.0086 25.568C44.358 25.2053 43.846 24.688 43.4726 24.016C43.11 23.3333 42.9286 22.5333 42.9286 21.616C42.9286 20.6987 43.11 19.8987 43.4726 19.216C43.846 18.5333 44.358 18.0107 45.0086 17.648C45.6593 17.2853 46.406 17.104 47.2486 17.104C48.102 17.104 48.8433 17.2853 49.4726 17.648C50.1126 18.0107 50.598 18.496 50.9286 19.104C51.27 19.712 51.4406 20.384 51.4406 21.12ZM49.9686 21.216C50.0006 20.5653 49.894 20.0213 49.6486 19.584C49.4033 19.1467 49.0673 18.8213 48.6406 18.608C48.214 18.3947 47.75 18.288 47.2486 18.288C46.4486 18.288 45.7766 18.5387 45.2326 19.04C44.6886 19.5307 44.3953 20.256 44.3526 21.216H49.9686ZM56.945 17.104C57.7983 17.104 58.5183 17.3173 59.105 17.744C59.7023 18.1707 60.1183 18.7413 60.353 19.456V17.216H61.809V26H60.353V23.76C60.1183 24.4747 59.7023 25.0453 59.105 25.472C58.5183 25.8987 57.7983 26.112 56.945 26.112C56.1663 26.112 55.473 25.9307 54.865 25.568C54.257 25.2053 53.777 24.688 53.425 24.016C53.0837 23.3333 52.913 22.5333 52.913 21.616C52.913 20.6987 53.0837 19.8987 53.425 19.216C53.777 18.5333 54.257 18.0107 54.865 17.648C55.473 17.2853 56.1663 17.104 56.945 17.104ZM57.361 18.4C56.465 18.4 55.745 18.688 55.201 19.264C54.6677 19.8293 54.401 20.6133 54.401 21.616C54.401 22.6187 54.6677 23.408 55.201 23.984C55.745 24.5493 56.465 24.832 57.361 24.832C57.937 24.832 58.449 24.6987 58.897 24.432C59.3557 24.1653 59.713 23.792 59.969 23.312C60.225 22.8213 60.353 22.256 60.353 21.616C60.353 20.976 60.225 20.4107 59.969 19.92C59.713 19.4293 59.3557 19.056 58.897 18.8C58.449 18.5333 57.937 18.4 57.361 18.4ZM68.0143 17.104C69.1343 17.104 70.0623 17.4027 70.7983 18C71.5343 18.5973 71.9876 19.3973 72.1583 20.4H70.6223C70.5156 19.7707 70.2223 19.28 69.7423 18.928C69.2729 18.5653 68.6863 18.384 67.9823 18.384C67.4703 18.384 67.0009 18.5013 66.5743 18.736C66.1583 18.9707 65.8223 19.3333 65.5663 19.824C65.3103 20.304 65.1823 20.9013 65.1823 21.616C65.1823 22.3307 65.3103 22.9333 65.5663 23.424C65.8223 23.904 66.1583 24.2613 66.5743 24.496C67.0009 24.7307 67.4703 24.848 67.9823 24.848C68.6863 24.848 69.2729 24.6667 69.7423 24.304C70.2223 23.9413 70.5156 23.4453 70.6223 22.816H72.1583C71.9876 23.8293 71.5343 24.6347 70.7983 25.232C70.0623 25.8187 69.1343 26.112 68.0143 26.112C67.1716 26.112 66.4249 25.9307 65.7743 25.568C65.1236 25.2053 64.6116 24.688 64.2383 24.016C63.8756 23.3333 63.6943 22.5333 63.6943 21.616C63.6943 20.6987 63.8756 19.8987 64.2383 19.216C64.6116 18.5333 65.1236 18.0107 65.7743 17.648C66.4249 17.2853 67.1716 17.104 68.0143 17.104ZM78.6878 17.072C79.7118 17.072 80.5384 17.4027 81.1678 18.064C81.7971 18.7147 82.1118 19.6587 82.1118 20.896V26H80.6558V21.024C80.6558 20.1493 80.4318 19.4773 79.9838 19.008C79.5358 18.5387 78.9278 18.304 78.1598 18.304C77.3598 18.304 76.7198 18.5653 76.2398 19.088C75.7598 19.6 75.5198 20.352 75.5198 21.344V26H74.0638V14.16H75.5198V19.296C75.7438 18.5813 76.1384 18.032 76.7038 17.648C77.2798 17.264 77.9411 17.072 78.6878 17.072ZM92.425 21.12C92.425 21.4293 92.4037 21.696 92.361 21.92H85.337C85.369 22.9227 85.6517 23.6747 86.185 24.176C86.729 24.6773 87.3903 24.928 88.169 24.928C88.873 24.928 89.4597 24.752 89.929 24.4C90.409 24.0373 90.7023 23.5573 90.809 22.96H92.361C92.2543 23.568 92.0143 24.112 91.641 24.592C91.2783 25.072 90.8037 25.4453 90.217 25.712C89.6303 25.9787 88.969 26.112 88.233 26.112C87.3903 26.112 86.6437 25.9307 85.993 25.568C85.3423 25.2053 84.8303 24.688 84.457 24.016C84.0943 23.3333 83.913 22.5333 83.913 21.616C83.913 20.6987 84.0943 19.8987 84.457 19.216C84.8303 18.5333 85.3423 18.0107 85.993 17.648C86.6437 17.2853 87.3903 17.104 88.233 17.104C89.0863 17.104 89.8277 17.2853 90.457 17.648C91.097 18.0107 91.5823 18.496 91.913 19.104C92.2543 19.712 92.425 20.384 92.425 21.12ZM90.953 21.216C90.985 20.5653 90.8783 20.0213 90.633 19.584C90.3877 19.1467 90.0517 18.8213 89.625 18.608C89.1983 18.3947 88.7343 18.288 88.233 18.288C87.433 18.288 86.761 18.5387 86.217 19.04C85.673 19.5307 85.3797 20.256 85.337 21.216H90.953ZM95.7854 18.992C96.0734 18.384 96.4947 17.9147 97.0494 17.584C97.604 17.2427 98.2654 17.072 99.0334 17.072V18.656H98.5854C97.764 18.656 97.092 18.8693 96.5694 19.296C96.0467 19.712 95.7854 20.4053 95.7854 21.376V26H94.3294V17.216H95.7854V18.992Z" fill="#074EE8"/>
</g>
<defs>
<filter id="filter0_ii" x="0.333252" y="0" width="133.333" height="40" filterUnits="userSpaceOnUse" color-interpolation-filters="sRGB">
<feFlood flood-opacity="0" result="BackgroundImageFix"/>
<feBlend mode="normal" in="SourceGraphic" in2="BackgroundImageFix" result="shape"/>
<feColorMatrix in="SourceAlpha" type="matrix" values="0 0 0 0 0 0 0 0 0 0 0 0 0 0 0 0 0 0 127 0" result="hardAlpha"/>
<feOffset dy="2"/>
<feComposite in2="hardAlpha" operator="arithmetic" k2="-1" k3="1"/>
<feColorMatrix type="matrix" values="0 0 0 0 0 0 0 0 0 0.4 0 0 0 0 1 0 0 0 1 0"/>
<feBlend mode="normal" in2="shape" result="effect1_innerShadow"/>
<feColorMatrix in="SourceAlpha" type="matrix" values="0 0 0 0 0 0 0 0 0 0 0 0 0 0 0 0 0 0 127 0" result="hardAlpha"/>
<feOffset dy="-2"/>
<feComposite in2="hardAlpha" operator="arithmetic" k2="-1" k3="1"/>
<feColorMatrix type="matrix" values="0 0 0 0 0 0 0 0 0 0.4 0 0 0 0 1 0 0 0 1 0"/>
<feBlend mode="normal" in2="effect1_innerShadow" result="effect2_innerShadow"/>
</filter>
</defs>
</svg>
