<svg width="134" height="40" viewBox="0 0 134 40" fill="none" xmlns="http://www.w3.org/2000/svg">
<path d="M0.666748 0H130C132.209 0 134 1.79086 134 4V36C134 38.2091 132.209 40 130 40H0.666748V0Z" fill="white"/>
<path d="M43.2907 21.456V26H41.8347V14.72H45.4187C46.7094 14.72 47.6747 15.024 48.3147 15.632C48.9547 16.2293 49.2747 17.0507 49.2747 18.096C49.2747 19.152 48.9441 19.9787 48.2827 20.576C47.6214 21.1627 46.6667 21.456 45.4187 21.456H43.2907ZM45.2907 20.24C46.1761 20.24 46.8107 20.0533 47.1947 19.68C47.5894 19.3067 47.7867 18.7787 47.7867 18.096C47.7867 17.392 47.5894 16.8587 47.1947 16.496C46.8107 16.1227 46.1761 15.936 45.2907 15.936H43.2907V20.24H45.2907ZM54.5754 17.104C55.4287 17.104 56.1487 17.3173 56.7354 17.744C57.3327 18.1707 57.7487 18.7413 57.9834 19.456V17.216H59.4394V26H57.9834V23.76C57.7487 24.4747 57.3327 25.0453 56.7354 25.472C56.1487 25.8987 55.4287 26.112 54.5754 26.112C53.7967 26.112 53.1034 25.9307 52.4954 25.568C51.8874 25.2053 51.4074 24.688 51.0554 24.016C50.714 23.3333 50.5434 22.5333 50.5434 21.616C50.5434 20.6987 50.714 19.8987 51.0554 19.216C51.4074 18.5333 51.8874 18.0107 52.4954 17.648C53.1034 17.2853 53.7967 17.104 54.5754 17.104ZM54.9914 18.4C54.0954 18.4 53.3754 18.688 52.8314 19.264C52.298 19.8293 52.0314 20.6133 52.0314 21.616C52.0314 22.6187 52.298 23.408 52.8314 23.984C53.3754 24.5493 54.0954 24.832 54.9914 24.832C55.5674 24.832 56.0794 24.6987 56.5274 24.432C56.986 24.1653 57.3434 23.792 57.5994 23.312C57.8554 22.8213 57.9834 22.256 57.9834 21.616C57.9834 20.976 57.8554 20.4107 57.5994 19.92C57.3434 19.4293 56.986 19.056 56.5274 18.8C56.0794 18.5333 55.5674 18.4 54.9914 18.4ZM63.2126 18.992C63.5006 18.384 63.922 17.9147 64.4766 17.584C65.0313 17.2427 65.6926 17.072 66.4606 17.072V18.656H66.0126C65.1913 18.656 64.5193 18.8693 63.9966 19.296C63.474 19.712 63.2126 20.4053 63.2126 21.376V26H61.7566V17.216H63.2126V18.992ZM75.9772 21.12C75.9772 21.4293 75.9559 21.696 75.9132 21.92H68.8892C68.9212 22.9227 69.2039 23.6747 69.7372 24.176C70.2812 24.6773 70.9426 24.928 71.7212 24.928C72.4252 24.928 73.0119 24.752 73.4812 24.4C73.9612 24.0373 74.2546 23.5573 74.3612 22.96H75.9132C75.8066 23.568 75.5666 24.112 75.1932 24.592C74.8306 25.072 74.3559 25.4453 73.7692 25.712C73.1826 25.9787 72.5212 26.112 71.7852 26.112C70.9426 26.112 70.1959 25.9307 69.5452 25.568C68.8946 25.2053 68.3826 24.688 68.0092 24.016C67.6466 23.3333 67.4652 22.5333 67.4652 21.616C67.4652 20.6987 67.6466 19.8987 68.0092 19.216C68.3826 18.5333 68.8946 18.0107 69.5452 17.648C70.1959 17.2853 70.9426 17.104 71.7852 17.104C72.6386 17.104 73.3799 17.2853 74.0092 17.648C74.6492 18.0107 75.1346 18.496 75.4652 19.104C75.8066 19.712 75.9772 20.384 75.9772 21.12ZM74.5052 21.216C74.5372 20.5653 74.4306 20.0213 74.1852 19.584C73.9399 19.1467 73.6039 18.8213 73.1772 18.608C72.7506 18.3947 72.2866 18.288 71.7852 18.288C70.9852 18.288 70.3132 18.5387 69.7692 19.04C69.2252 19.5307 68.9319 20.256 68.8892 21.216H74.5052ZM82.5056 17.072C83.5296 17.072 84.3563 17.4027 84.9856 18.064C85.615 18.7147 85.9296 19.6587 85.9296 20.896V26H84.4736V21.024C84.4736 20.1493 84.2496 19.4773 83.8016 19.008C83.3536 18.5387 82.7456 18.304 81.9776 18.304C81.1776 18.304 80.5376 18.5653 80.0576 19.088C79.5776 19.6 79.3376 20.352 79.3376 21.344V26H77.8816V17.216H79.3376V19.296C79.5616 18.5813 79.9563 18.032 80.5216 17.648C81.0976 17.264 81.759 17.072 82.5056 17.072ZM92.3549 24.72V26H91.2669C90.3709 26 89.6989 25.7867 89.2509 25.36C88.8135 24.9333 88.5949 24.2187 88.5949 23.216V18.48H87.2829V17.216H88.5949V15.024H90.0669V17.216H92.3389V18.48H90.0669V23.248C90.0669 23.8133 90.1682 24.2027 90.3709 24.416C90.5842 24.6187 90.9469 24.72 91.4589 24.72H92.3549Z" fill="#074EE8"/>
<path d="M0.666748 0V-2H-1.33325V0H0.666748ZM0.666748 40H-1.33325V42H0.666748V40ZM0.666748 2H130V-2H0.666748V2ZM132 4V36H136V4H132ZM130 38H0.666748V42H130V38ZM2.66675 40V0H-1.33325V40H2.66675ZM132 36C132 37.1046 131.105 38 130 38V42C133.314 42 136 39.3137 136 36H132ZM130 2C131.105 2 132 2.89543 132 4H136C136 0.686295 133.314 -2 130 -2V2Z" fill="#074EE8"/>
</svg>
