<svg width="10" height="11" viewBox="0 0 10 11" fill="none" xmlns="http://www.w3.org/2000/svg">
<path d="M3.5211 0.872803C4.1947 0.872788 4.85415 1.066 5.42124 1.42951C5.98832 1.79302 6.43923 2.31157 6.72046 2.92365C7.00169 3.53572 7.10145 4.21562 7.00788 4.88268C6.91432 5.54974 6.63137 6.17597 6.1926 6.68705L9.24977 9.74422L8.86681 10.1272L5.8091 7.06947C5.37787 7.43825 4.86389 7.69733 4.31095 7.82467C3.75801 7.952 3.18248 7.94381 2.63338 7.80079C2.08429 7.65777 1.5779 7.38416 1.15733 7.00326C0.736766 6.62236 0.414491 6.14545 0.217953 5.61316C0.0214147 5.08087 -0.043563 4.50897 0.0285533 3.94615C0.10067 3.38334 0.307744 2.84629 0.632139 2.38075C0.956534 1.91521 1.38864 1.53497 1.89165 1.27241C2.39467 1.00985 2.95369 0.872759 3.5211 0.872803ZM3.5211 1.41447C2.73098 1.41447 1.97322 1.72835 1.41452 2.28705C0.855814 2.84575 0.541938 3.60351 0.541938 4.39364C0.541938 5.18376 0.855814 5.94152 1.41452 6.50023C1.97322 7.05893 2.73098 7.3728 3.5211 7.3728C4.31123 7.3728 5.06899 7.05893 5.62769 6.50023C6.1864 5.94152 6.50027 5.18376 6.50027 4.39364C6.50027 3.60351 6.1864 2.84575 5.62769 2.28705C5.06899 1.72835 4.31123 1.41447 3.5211 1.41447Z" fill="#A9A9A9"/>
</svg>
